<svg width="1200" height="1500" viewBox="0 0 1200 1500" fill="none" xmlns="http://www.w3.org/2000/svg">
  <rect width="1200" height="1500" rx="96" fill="#F7EEDF"/>
  <rect x="190" y="180" width="820" height="1140" rx="72" fill="#FFF9F0"/>
  <circle cx="600" cy="520" r="170" fill="#E8C18A"/>
  <path d="M428 486C447 354 533 280 654 280C757 280 838 359 845 476C796 442 732 422 654 422C558 422 485 444 428 486Z" fill="#16120F"/>
  <rect x="385" y="770" width="430" height="300" rx="70" fill="#15120F"/>
  <path d="M452 840C558 935 647 937 748 840" stroke="#D4AF70" stroke-width="18" stroke-linecap="round"/>
  <path d="M320 1115C435 1032 525 1000 600 1000C675 1000 765 1032 880 1115" stroke="#D4AF70" stroke-width="22" stroke-linecap="round"/>
  <circle cx="543" cy="528" r="18" fill="#16120F"/>
  <circle cx="670" cy="528" r="18" fill="#16120F"/>
  <path d="M553 620C585 648 617 648 647 620" stroke="#A66B49" stroke-width="14" stroke-linecap="round"/>
</svg>
